# xmcd
#
# Track frame offsets:
#	150
#	23182
#	45907
#	64753
#	88502
#	106422
#	130071
#	148007
#	166183
#	196979
#	218008
#	242597
#
# Disc length: 3515 seconds
#
# Revision: 0
# Processed by: cddbd v1.5.1PL0 Copyright (c) Steve Scherf et al.
# Submitted via: audiograbber 1.83.01
#
DISCID=9a0db90c
DTITLE=Native Voice - Indian Meditation
DYEAR=1900
DGENRE=Ballad
TTITLE0=The Last Of The Mohicans
TTITLE1=Medicine Man
TTITLE2=Geronimo
TTITLE3=Ananau
TTITLE4=The Bad, The Good, The Ogly
TTITLE5=Tatanka
TTITLE6=Apache
TTITLE7=Night Bird
TTITLE8=Tor Cheney Namana
TTITLE9=Four Circles Of Live
TTITLE10=Ly-o-Lay Ale Loya
TTITLE11=Taino Tee
EXTD=
EXTT0=
EXTT1=
EXTT2=
EXTT3=
EXTT4=
EXTT5=
EXTT6=
EXTT7=
EXTT8=
EXTT9=
EXTT10=
EXTT11=
PLAYORDER=
